HIERARCHY
ROOT joint_Root
{
	OFFSET 0.0 0.0 0.0
	CHANNELS 6 Xposition Yposition Zposition Zrotation Xrotation Yrotation 
	JOINT Hips
	{
		OFFSET -17.1583 93.1646 452.98
		CHANNELS 6 Xposition Yposition Zposition Zrotation Xrotation Yrotation 
		JOINT Spine
		{
			OFFSET 15.7357 0.0 0.0
			CHANNELS 6 Xposition Yposition Zposition Zrotation Xrotation Yrotation 
			JOINT Chest
			{
				OFFSET 8.98455 -0.406207 0.0
				CHANNELS 6 Xposition Yposition Zposition Zrotation Xrotation Yrotation 
				JOINT Neck
				{
					OFFSET 16.3773 0.0 0.0
					CHANNELS 6 Xposition Yposition Zposition Zrotation Xrotation Yrotation 
					JOINT Head
					{
						OFFSET 6.45672 0.0 0.0
						CHANNELS 6 Xposition Yposition Zposition Zrotation Xrotation Yrotation 
						End Site
						{
							OFFSET 0.0 0.0 0.0
						}
					}
				}
				JOINT Shoulder_L
				{
					OFFSET 12.9942 -0.242716 4.98039
					CHANNELS 6 Xposition Yposition Zposition Zrotation Xrotation Yrotation 
					JOINT UpperArm_L
					{
						OFFSET 5.34809 0.0 0.0
						CHANNELS 6 Xposition Yposition Zposition Zrotation Xrotation Yrotation 
						JOINT LowerArm_L
						{
							OFFSET 24.3286 1.87007e-05 0.0
							CHANNELS 6 Xposition Yposition Zposition Zrotation Xrotation Yrotation 
							JOINT Hand_L
							{
								OFFSET 22.2916 0.0 0.0
								CHANNELS 6 Xposition Yposition Zposition Zrotation Xrotation Yrotation 
								End Site
								{
									OFFSET 0.0 0.0 0.0
								}
							}
						}
					}
				}
				JOINT Shoulder_R
				{
					OFFSET 12.9945 -0.242716 -4.98039
					CHANNELS 6 Xposition Yposition Zposition Zrotation Xrotation Yrotation 
					JOINT UpperArm_R
					{
						OFFSET -5.34813 0.0 0.0
						CHANNELS 6 Xposition Yposition Zposition Zrotation Xrotation Yrotation 
						JOINT LowerArm_R
						{
							OFFSET -24.3289 0.000322201 0.0
							CHANNELS 6 Xposition Yposition Zposition Zrotation Xrotation Yrotation 
							JOINT Hand_R
							{
								OFFSET -22.2915 -0.000108084 0.0
								CHANNELS 6 Xposition Yposition Zposition Zrotation Xrotation Yrotation 
								End Site
								{
									OFFSET 0.0 0.0 0.0
								}
							}
						}
					}
				}
			}
		}
		JOINT UpperLeg_L
		{
			OFFSET -2.19248 -6.46944 0.0
			CHANNELS 6 Xposition Yposition Zposition Zrotation Xrotation Yrotation 
			JOINT LowerLeg_L
			{
				OFFSET 39.0811 0.0 -1.23785e-05
				CHANNELS 6 Xposition Yposition Zposition Zrotation Xrotation Yrotation 
				JOINT Foot_L
				{
					OFFSET 40.9854 0.0 -1.26872e-05
					CHANNELS 6 Xposition Yposition Zposition Zrotation Xrotation Yrotation 
					JOINT Toes_L
					{
						OFFSET 11.7543 0.0 0.0
						CHANNELS 6 Xposition Yposition Zposition Zrotation Xrotation Yrotation 
						End Site
						{
							OFFSET 0.0 0.0 0.0
						}
					}
				}
			}
		}
		JOINT UpperLeg_R
		{
			OFFSET -2.19251 6.46944 0.0
			CHANNELS 6 Xposition Yposition Zposition Zrotation Xrotation Yrotation 
			JOINT LowerLeg_R
			{
				OFFSET -39.0811 -0.00228153 -0.0401928
				CHANNELS 6 Xposition Yposition Zposition Zrotation Xrotation Yrotation 
				JOINT Foot_R
				{
					OFFSET -40.9854 0.0 0.0
					CHANNELS 6 Xposition Yposition Zposition Zrotation Xrotation Yrotation 
					JOINT Toes_R
					{
						OFFSET -11.7543 0.0 0.0
						CHANNELS 6 Xposition Yposition Zposition Zrotation Xrotation Yrotation 
						End Site
						{
							OFFSET 0.0 0.0 0.0
						}
					}
				}
			}
		}
	}
}
MOTION
Frames:	9
Frame Time:	0.0333333
0.000000 0.000000 0.000000 0.000000 0.000000 -0.000000 -3.133520 91.407400 0.191952 82.085400 -1.721640 3.888950 15.735700 0.000005 -0.000001 95.986800 87.792700 -93.234100 8.984550 -0.406207 -0.000000 -3.374210 0.192803 5.512450 16.377300 -0.000001 -0.000001 12.269600 1.153370 -7.567830 6.456720 -0.000001 -0.000000 7.387840 -2.080530 -19.193200 12.994200 -0.242716 4.980390 -92.963200 8.099890 -69.827900 5.348090 -0.000007 -0.000001 -74.727100 8.608200 0.287757 24.328600 0.000019 0.000005 40.880300 -42.254500 -127.840000 22.291600 -0.000001 0.000005 45.325300 5.145280 4.055840 12.994500 -0.242716 -4.980390 88.448700 4.623110 -71.428100 -5.348130 -0.000001 -0.000004 -72.300400 30.395300 -2.447140 -24.328900 0.000322 -0.000009 2.159630 7.666970 -15.790500 -22.291500 -0.000108 -0.000004 1.625670 5.249730 1.439710 -2.192480 -6.469440 -0.000000 -169.942000 1.801880 -4.833360 39.081100 -0.000007 -0.000012 0.489935 -0.793805 31.684200 40.985400 -0.000006 -0.000013 0.950863 7.189870 -78.773700 11.754300 -0.000000 0.000003 0.000076 0.166339 -9.830250 -2.192510 6.469440 -0.000001 -167.796000 6.649920 -176.637000 -39.081100 -0.002282 -0.040193 0.153115 -0.497930 16.742600 -40.985400 0.000008 0.000006 5.548210 0.282857 -72.344600 -11.754300 -0.000006 -0.000006 -0.011210 0.280134 -5.189720
0.000000 0.000000 0.000000 0.000000 0.000000 -0.000000 -3.092300 91.403600 0.170251 82.046100 -1.707860 3.840700 15.735700 0.000005 -0.000001 95.434500 87.792900 -92.658100 8.984550 -0.406207 -0.000000 -3.369150 0.148269 5.558420 16.377300 -0.000001 -0.000001 12.293300 1.141870 -7.565720 6.456720 -0.000001 -0.000000 7.276010 -2.032960 -19.138000 12.994200 -0.242716 4.980390 -92.970800 8.113930 -69.812300 5.348090 -0.000007 -0.000001 -74.718700 8.673010 0.269752 24.328600 0.000019 0.000005 40.847400 -42.241700 -127.866000 22.291600 -0.000001 0.000005 45.299700 5.147090 4.012630 12.994500 -0.242716 -4.980390 88.457800 4.601500 -71.449200 -5.348130 -0.000001 -0.000004 -72.242200 30.342100 -2.547220 -24.328900 0.000322 -0.000009 2.155300 7.676330 -15.742300 -22.291500 -0.000108 -0.000004 1.628480 5.253400 1.343040 -2.192480 -6.469440 -0.000000 -169.909000 1.694740 -4.935540 39.081100 -0.000007 -0.000012 0.498858 -0.806232 31.748700 40.985400 -0.000006 -0.000013 1.009860 7.302260 -78.765200 11.754300 -0.000000 0.000003 0.000114 0.165684 -9.856860 -2.192510 6.469440 -0.000001 -167.785000 6.716180 -176.723000 -39.081100 -0.002282 -0.040193 0.153054 -0.496436 16.783800 -40.985400 0.000008 0.000006 5.544750 0.368349 -72.325800 -11.754300 -0.000006 -0.000006 -0.010946 0.278245 -5.267040
0.000000 0.000000 0.000000 0.000000 0.000000 -0.000000 -3.056810 91.411700 0.153929 82.011900 -1.675830 3.865550 15.735700 0.000005 -0.000001 95.163300 87.768500 -92.375800 8.984550 -0.406207 -0.000000 -3.318150 0.132029 5.580100 16.377300 -0.000001 -0.000001 12.297100 1.132350 -7.530120 6.456720 -0.000001 -0.000000 7.218270 -2.011490 -19.057300 12.994200 -0.242716 4.980390 -92.965300 8.100330 -69.815700 5.348090 -0.000007 -0.000001 -74.692200 8.828180 0.178420 24.328600 0.000019 0.000005 41.124600 -42.358800 -127.657000 22.291600 -0.000001 0.000005 45.490800 5.138540 4.212570 12.994500 -0.242716 -4.980390 88.441500 4.647180 -71.437200 -5.348130 -0.000001 -0.000004 -72.142000 30.348700 -2.564640 -24.328900 0.000322 -0.000009 2.158780 7.647410 -15.822800 -22.291500 -0.000108 -0.000004 1.641400 5.250630 1.416180 -2.192480 -6.469440 -0.000000 -169.880000 1.633680 -4.929830 39.081100 -0.000007 -0.000012 0.496436 -0.802168 31.753400 40.985400 -0.000006 -0.000013 1.060420 7.399290 -78.812600 11.754300 -0.000000 0.000003 -0.000012 0.167822 -9.770050 -2.192510 6.469440 -0.000001 -167.779000 6.726440 -176.687000 -39.081100 -0.002282 -0.040193 0.152421 -0.495938 16.732600 -40.985400 0.000008 0.000006 5.503370 0.324392 -72.323300 -11.754300 -0.000006 -0.000006 -0.010955 0.278307 -5.264500
0.000000 0.000000 0.000000 0.000000 0.000000 -0.000000 -3.000980 91.408700 0.143698 81.988300 -1.693870 3.827760 15.735700 0.000005 -0.000001 95.204400 87.764300 -92.407800 8.984550 -0.406207 -0.000000 -3.310230 0.135283 5.598460 16.377300 -0.000001 -0.000001 12.289300 1.125560 -7.453590 6.456720 -0.000001 -0.000000 7.180480 -1.980200 -19.060000 12.994200 -0.242716 4.980390 -92.984900 8.156190 -69.820000 5.348090 -0.000007 -0.000001 -74.609600 8.666920 0.163770 24.328600 0.000019 0.000005 40.560300 -42.116200 -128.080000 22.291600 -0.000001 0.000005 45.259700 5.161550 3.665030 12.994500 -0.242716 -4.980390 88.445000 4.636670 -71.437000 -5.348130 -0.000001 -0.000004 -72.123100 30.339400 -2.611780 -24.328900 0.000322 -0.000009 2.164880 7.677760 -15.806000 -22.291500 -0.000108 -0.000004 1.637370 5.249710 1.440500 -2.192480 -6.469440 -0.000000 -169.894000 1.595610 -4.999900 39.081100 -0.000007 -0.000012 0.500300 -0.807099 31.795200 40.985400 -0.000006 -0.000013 1.104430 7.398880 -78.755700 11.754300 -0.000000 0.000003 0.000140 0.165242 -9.874820 -2.192510 6.469440 -0.000001 -167.752000 6.525260 -176.779000 -39.081100 -0.002282 -0.040193 0.154012 -0.498893 16.806600 -40.985400 0.000008 0.000006 5.443460 0.167636 -72.287600 -11.754300 -0.000006 -0.000006 -0.011165 0.279812 -5.202910
0.000000 0.000000 0.000000 0.000000 0.000000 -0.000000 -2.942210 91.418900 0.142327 81.992800 -1.686560 3.824780 15.735700 0.000005 -0.000001 95.250600 87.754100 -92.454000 8.984550 -0.406207 -0.000000 -3.290330 0.141240 5.598470 16.377300 -0.000001 -0.000001 12.326200 1.114900 -7.460190 6.456720 -0.000001 -0.000000 7.147520 -2.002160 -18.982700 12.994200 -0.242716 4.980390 -92.979900 8.147150 -69.830700 5.348090 -0.000007 -0.000001 -74.612200 8.644040 0.134614 24.328600 0.000019 0.000005 40.608400 -42.171500 -128.063000 22.291600 -0.000001 0.000005 45.289000 5.155150 3.819710 12.994500 -0.242716 -4.980390 88.438000 4.647640 -71.400600 -5.348130 -0.000001 -0.000004 -72.082900 30.401100 -2.634760 -24.328900 0.000322 -0.000009 2.163530 7.678820 -15.794600 -22.291500 -0.000108 -0.000004 1.639070 5.250290 1.425140 -2.192480 -6.469440 -0.000000 -169.944000 1.630900 -4.979450 39.081100 -0.000007 -0.000012 0.497271 -0.803411 31.756800 40.985400 -0.000006 -0.000013 1.136090 7.366460 -78.790100 11.754300 -0.000000 0.000003 0.000036 0.167008 -9.803080 -2.192510 6.469440 -0.000001 -167.810000 6.583130 -176.759000 -39.081100 -0.002282 -0.040193 0.152642 -0.495500 16.770000 -40.985400 0.000008 0.000006 5.402050 0.205362 -72.303300 -11.754300 -0.000006 -0.000006 -0.011285 0.280670 -5.167800
0.000000 0.000000 0.000000 0.000000 0.000000 -0.000000 -2.883580 91.417000 0.146882 81.979200 -1.698750 3.803370 15.735700 0.000005 -0.000001 95.402400 87.751100 -92.598700 8.984550 -0.406207 -0.000000 -3.285670 0.153072 5.613030 16.377300 -0.000001 -0.000001 12.337900 1.116450 -7.443630 6.456720 -0.000001 -0.000000 7.169430 -2.007190 -18.960400 12.994200 -0.242716 4.980390 -92.975200 8.134030 -69.830100 5.348090 -0.000007 -0.000001 -74.643500 8.582450 0.111726 24.328600 0.000019 0.000005 40.693700 -42.197700 -127.993000 22.291600 -0.000001 0.000005 45.349900 5.147610 4.000360 12.994500 -0.242716 -4.980390 88.437800 4.653090 -71.417600 -5.348130 -0.000001 -0.000004 -72.100100 30.260000 -2.623580 -24.328900 0.000322 -0.000009 2.192400 7.802730 -15.754900 -22.291500 -0.000108 -0.000004 1.544530 5.252660 1.362370 -2.192480 -6.469440 -0.000000 -169.976000 1.611490 -5.018390 39.081100 -0.000007 -0.000012 0.500013 -0.806916 31.786300 40.985400 -0.000006 -0.000013 1.178470 7.344430 -78.767900 11.754300 -0.000000 0.000003 0.000021 0.167270 -9.792450 -2.192510 6.469440 -0.000001 -167.840000 6.562920 -176.827000 -39.081100 -0.002282 -0.040193 0.153144 -0.494655 16.850300 -40.985400 0.000008 0.000006 5.355060 0.205489 -72.329100 -11.754300 -0.000006 -0.000006 -0.011173 0.279872 -5.200430
0.000000 0.000000 0.000000 0.000000 0.000000 -0.000000 -2.819810 91.420900 0.169964 81.972000 -1.697640 3.876000 15.735700 0.000005 -0.000001 95.062000 87.713400 -92.253700 8.984550 -0.406207 -0.000000 -3.207720 0.134598 5.621470 16.377300 -0.000001 -0.000001 12.353200 1.089380 -7.446280 6.456720 -0.000001 -0.000000 7.167080 -2.029700 -18.930200 12.994200 -0.242716 4.980390 -92.977000 8.116300 -69.778300 5.348090 -0.000007 -0.000001 -74.633600 8.502950 0.105154 24.328600 0.000019 0.000005 40.594100 -42.062700 -128.018000 22.291600 -0.000001 0.000005 45.296900 5.149940 3.944610 12.994500 -0.242716 -4.980390 88.431800 4.670780 -71.417100 -5.348130 -0.000001 -0.000004 -72.087700 30.329200 -2.615560 -24.328900 0.000322 -0.000009 2.173140 7.712980 -15.794900 -22.291500 -0.000108 -0.000004 1.578840 5.251010 1.406120 -2.192480 -6.469440 -0.000000 -170.015000 1.634920 -4.914270 39.081100 -0.000007 -0.000012 0.499688 -0.807072 31.764600 40.985400 -0.000006 -0.000013 1.223610 7.339170 -78.796900 11.754300 -0.000000 0.000003 0.000007 0.167499 -9.783130 -2.192510 6.469440 -0.000001 -167.893000 6.589170 -176.708000 -39.081100 -0.002282 -0.040193 0.152358 -0.493193 16.813800 -40.985400 0.000008 0.000006 5.314550 0.247384 -72.349100 -11.754300 -0.000006 -0.000006 -0.011217 0.280183 -5.187730
0.000000 0.000000 0.000000 0.000000 0.000000 -0.000000 -2.754820 91.424100 0.169902 81.982900 -1.649990 3.789680 15.735700 0.000005 -0.000001 95.010600 87.739900 -92.195000 8.984550 -0.406207 -0.000000 -3.259890 0.123903 5.635930 16.377300 -0.000001 -0.000001 12.362800 1.066180 -7.419100 6.456720 -0.000001 -0.000000 7.237370 -2.042630 -18.952200 12.994200 -0.242716 4.980390 -92.985000 8.147630 -69.799900 5.348090 -0.000007 -0.000001 -74.568500 8.446150 0.135846 24.328600 0.000019 0.000005 40.900800 -42.116300 -127.747000 22.291600 -0.000001 0.000005 45.327700 5.143350 4.101560 12.994500 -0.242716 -4.980390 88.432900 4.658650 -71.384600 -5.348130 -0.000001 -0.000004 -72.099300 30.333100 -2.600540 -24.328900 0.000322 -0.000009 2.161700 7.685660 -15.768600 -22.291500 -0.000108 -0.000004 1.552560 5.250870 1.409880 -2.192480 -6.469440 -0.000000 -170.070000 1.605560 -5.008530 39.081100 -0.000007 -0.000012 0.500997 -0.809386 31.758300 40.985400 -0.000006 -0.000013 1.277940 7.348330 -78.773700 11.754300 -0.000000 0.000003 0.000193 0.164308 -9.912730 -2.192510 6.469440 -0.000001 -167.921000 6.469670 -176.826000 -39.081100 -0.002282 -0.040193 0.152567 -0.492740 16.850600 -40.985400 0.000008 0.000006 5.261720 0.182921 -72.306600 -11.754300 -0.000006 -0.000006 -0.011073 0.279155 -5.229780
0.000000 0.000000 0.000000 0.000000 0.000000 -0.000000 -2.692380 91.421900 0.203852 81.938600 -1.631720 3.843490 15.735700 0.000005 -0.000001 94.759900 87.716300 -91.917300 8.984550 -0.406207 -0.000000 -3.210600 0.106753 5.689360 16.377300 -0.000001 -0.000001 12.448300 1.033060 -7.458160 6.456720 -0.000001 -0.000000 7.197690 -2.070500 -18.886400 12.994200 -0.242716 4.980390 -92.990000 8.173640 -69.827600 5.348090 -0.000007 -0.000001 -74.570700 8.216350 0.195923 24.328600 0.000019 0.000005 40.775300 -41.985100 -127.799000 22.291600 -0.000001 0.000005 45.139900 5.146140 4.035380 12.994500 -0.242716 -4.980390 88.440100 4.635700 -71.379000 -5.348130 -0.000001 -0.000004 -72.141600 30.293600 -2.572630 -24.328900 0.000322 -0.000009 2.181360 7.759910 -15.761100 -22.291500 -0.000108 -0.000004 1.564880 5.251440 1.394680 -2.192480 -6.469440 -0.000000 -170.070000 1.619770 -4.950670 39.081100 -0.000007 -0.000012 0.500197 -0.807404 31.780200 40.985400 -0.000006 -0.000013 1.332200 7.354090 -78.762800 11.754300 -0.000000 0.000003 0.000180 0.164544 -9.903140 -2.192510 6.469440 -0.000001 -167.944000 6.585270 -176.735000 -39.081100 -0.002282 -0.040193 0.152130 -0.491891 16.831400 -40.985400 0.000008 0.000006 5.217860 0.229440 -72.365700 -11.754300 -0.000006 -0.000006 -0.011322 0.280929 -5.157160
